<?xml version="1.0" encoding="UTF-8"?>
<svg width="786px" height="574px" viewBox="0 0 786 574" version="1.1" xmlns="http://www.w3.org/2000/svg" xmlns:xlink="http://www.w3.org/1999/xlink">
    <title>logo/normal copy</title>
    <defs>
        <path d="M683.018,484 L662.889391,574 L500.157445,573.549258 L518.875,484 L683.018,484 Z M438.086,484 L419.05935,573.549258 L0,573.549258 L18.718,484 L438.086,484 Z M209.025,363 L195.236315,428.668466 L449.842555,428.669525 L444.672,453 L25.198,453 L44.011,363 L209.025,363 Z M709.182,363 L695.393759,428.668466 L689.951,453 L525.355,453 L544.168,363 L709.182,363 Z M234.432,242 L215.534,332 L50.491,332 L69.304,242 L234.432,242 Z M734.59,242 L715.691,332 L550.648,332 L569.461,242 L734.59,242 Z M259.84,121 L240.942,211 L75.784,211 L94.596,121 L259.84,121 Z M759.997,121 L741.099,211 L575.941,211 L594.753,121 L759.997,121 Z M285.24761,0 L266.349,90 L101.076,90 L119.889424,0 L285.24761,0 Z M785.405055,0 L766.507,90 L601.233,90 L620.046869,0 L785.405055,0 Z" id="path-1"></path>
    </defs>
    <g id="logo/normal-copy" stroke="none" stroke-width="1" fill="none" fill-rule="evenodd">
        <mask id="mask-2" fill="white">
            <use xlink:href="#path-1"></use>
        </mask>
        <use id="Combined-Shape" fill="#6366F1" fill-rule="nonzero" xlink:href="#path-1"></use>
    </g>
</svg>