<svg width="68" height="82" viewBox="0 0 68 82" fill="none" xmlns="http://www.w3.org/2000/svg">
<path fill-rule="evenodd" clip-rule="evenodd" d="M51.95 2L49.95 4V8L47.95 6L45.95 4V10.0865C51.2198 8.2403 57.3146 9.42348 61.5272 13.636L62.2343 14.3431L65.0627 17.1716L67.8911 20H65.0627H62.2343L59.4058 22.8284V20V17.1716L53.749 22.8284V20V17.1716L49.2738 21.6467C51.9071 22.9083 54.2003 24.9502 55.7705 27.6699L56.2705 28.5359L58.2705 32L55.5385 31.2679L52.8064 30.5359L49.3423 32.5359L50.0744 29.8038L50.8064 27.0718L43.8782 31.0718L44.6103 28.3397L45.3423 25.6077L38.4141 29.6077L39.1462 26.8756L39.8782 24.1436L37.9934 25.2318C37.9144 26.6148 37.1328 27.8096 36 28.4649V80C36 81.1046 35.1046 82 34 82C32.8954 82 32 81.1046 32 80V28.4649C30.8803 27.8171 30.1037 26.6422 30.0096 25.2795L28.0422 24.1436L28.7743 26.8756L29.5063 29.6077L22.5781 25.6077L23.3102 28.3397L24.0422 31.0718L17.114 27.0718L17.8461 29.8038L18.5781 32.5359L15.114 30.5359L12.382 31.2679L9.6499 32L11.6499 28.5359L12.1499 27.6699C13.7162 24.9571 16.0018 22.9186 18.6268 21.6562L14.1421 17.1716V20V22.8284L8.48528 17.1716V20V22.8284L5.65685 20H2.82843H0L2.82843 17.1716L5.65685 14.3431L6.36396 13.636C10.5789 9.42114 16.6781 8.23898 21.9499 10.0896L21.95 4L19.95 6L17.95 8V4L15.95 2L13.95 0H17.95H18.95C26.9086 0 33.4196 6.19822 33.9191 14.0308L33.95 14L33.9808 14.0308C34.4803 6.19822 40.9913 0 48.95 0H49.95H53.95L51.95 2ZM25.9499 12.2248C25.1143 11.5988 24.2282 11.0713 23.3075 10.6424L23.95 10L25.95 8L25.9499 12.2248ZM41.95 12.2182C42.7848 11.5937 43.67 11.0675 44.5896 10.6396L43.95 10L41.95 8V12.2182ZM48.0921 21.1415C47.0738 20.7566 46.0159 20.4827 44.9384 20.3253L48.0921 17.1716V20V21.1415ZM22.9565 20.3291L19.799 17.1716V20V21.1526C20.8182 20.7649 21.8774 20.4886 22.9565 20.3291Z" fill="#BCAE73"/>
</svg>
